<mxfile host="app.diagrams.net" modified="2020-09-02T10:21:59.056Z" agent="5.0 (Windows NT 10.0; Win64; x64) AppleWebKit/537.36 (KHTML, like Gecko) Chrome/84.0.4147.135 Safari/537.36" etag="KPcVmeCswBRFHS7WCaXh" version="13.1.1" type="github">
  <diagram id="fw9tjX16YKucD8gIZ0y0" name="第 1 页">
    <mxGraphModel dx="1662" dy="762" grid="1" gridSize="10" guides="1" tooltips="1" connect="1" arrows="1" fold="1" page="1" pageScale="1" pageWidth="827" pageHeight="1169" math="0" shadow="0">
      <root>
        <mxCell id="0" />
        <mxCell id="1" parent="0" />
        <mxCell id="gnj5gE8BON5v_lgmN5P2-25" style="edgeStyle=orthogonalEdgeStyle;rounded=0;orthogonalLoop=1;jettySize=auto;html=1;exitX=0.5;exitY=1;exitDx=0;exitDy=0;entryX=0.5;entryY=0;entryDx=0;entryDy=0;" parent="1" source="gnj5gE8BON5v_lgmN5P2-2" target="gnj5gE8BON5v_lgmN5P2-19" edge="1">
          <mxGeometry relative="1" as="geometry" />
        </mxCell>
        <mxCell id="gnj5gE8BON5v_lgmN5P2-26" style="edgeStyle=orthogonalEdgeStyle;rounded=0;orthogonalLoop=1;jettySize=auto;html=1;exitX=1;exitY=0.5;exitDx=0;exitDy=0;" parent="1" source="gnj5gE8BON5v_lgmN5P2-2" target="gnj5gE8BON5v_lgmN5P2-20" edge="1">
          <mxGeometry relative="1" as="geometry" />
        </mxCell>
        <mxCell id="gnj5gE8BON5v_lgmN5P2-2" value="抽象工厂接口&lt;br&gt;（创建椅子）：（返回椅子类型）&lt;br&gt;（创建桌子）：（返回桌子类型）" style="rounded=0;whiteSpace=wrap;html=1;" parent="1" vertex="1">
          <mxGeometry x="40" y="120" width="230" height="70" as="geometry" />
        </mxCell>
        <mxCell id="gnj5gE8BON5v_lgmN5P2-3" value="实际产品类（沙发）&lt;br&gt;（是否有扶手）&lt;br&gt;（坐下）" style="ellipse;whiteSpace=wrap;html=1;" parent="1" vertex="1">
          <mxGeometry x="600" y="670" width="110" height="110" as="geometry" />
        </mxCell>
        <mxCell id="gnj5gE8BON5v_lgmN5P2-6" value="产品（办公椅）&lt;br&gt;（是否有扶手）&lt;br&gt;（坐下）" style="ellipse;whiteSpace=wrap;html=1;" parent="1" vertex="1">
          <mxGeometry x="720" y="660" width="112" height="120" as="geometry" />
        </mxCell>
        <mxCell id="gnj5gE8BON5v_lgmN5P2-7" value="&lt;div style=&quot;text-align: left&quot;&gt;&lt;span&gt;抽象产品接口（椅子）&lt;/span&gt;&lt;/div&gt;&lt;div style=&quot;text-align: left&quot;&gt;&lt;br&gt;&lt;/div&gt;&lt;div style=&quot;text-align: left&quot;&gt;（是否扶手）&lt;/div&gt;&lt;div style=&quot;text-align: left&quot;&gt;（坐下）&lt;/div&gt;" style="shape=parallelogram;perimeter=parallelogramPerimeter;whiteSpace=wrap;html=1;" parent="1" vertex="1">
          <mxGeometry x="681" y="530" width="190" height="80" as="geometry" />
        </mxCell>
        <mxCell id="gnj5gE8BON5v_lgmN5P2-9" value="实现椅子接口" style="text;html=1;strokeColor=none;fillColor=none;align=center;verticalAlign=middle;whiteSpace=wrap;rounded=0;" parent="1" vertex="1">
          <mxGeometry x="610" y="640" width="96" height="20" as="geometry" />
        </mxCell>
        <mxCell id="gnj5gE8BON5v_lgmN5P2-10" value="实现椅子接口" style="text;html=1;strokeColor=none;fillColor=none;align=center;verticalAlign=middle;whiteSpace=wrap;rounded=0;" parent="1" vertex="1">
          <mxGeometry x="718" y="640" width="96" height="20" as="geometry" />
        </mxCell>
        <mxCell id="gnj5gE8BON5v_lgmN5P2-13" value="&lt;div style=&quot;text-align: left&quot;&gt;抽象产品（桌子）&lt;/div&gt;&lt;div style=&quot;text-align: left&quot;&gt;&lt;span&gt;产品Interface&lt;/span&gt;&lt;/div&gt;&lt;div style=&quot;text-align: left&quot;&gt;（形状）&lt;/div&gt;&lt;div style=&quot;text-align: left&quot;&gt;（是否可折叠）&lt;/div&gt;" style="shape=parallelogram;perimeter=parallelogramPerimeter;whiteSpace=wrap;html=1;" parent="1" vertex="1">
          <mxGeometry x="910" y="540" width="172" height="80" as="geometry" />
        </mxCell>
        <mxCell id="gnj5gE8BON5v_lgmN5P2-14" value="产品（咖啡桌）&lt;br&gt;（形状）&lt;br&gt;（是否可折叠）" style="ellipse;whiteSpace=wrap;html=1;" parent="1" vertex="1">
          <mxGeometry x="888" y="670" width="102" height="100" as="geometry" />
        </mxCell>
        <mxCell id="gnj5gE8BON5v_lgmN5P2-15" value="产品（饭桌）&lt;br&gt;（形状）&lt;br&gt;（是否可折叠）" style="ellipse;whiteSpace=wrap;html=1;" parent="1" vertex="1">
          <mxGeometry x="1000" y="670" width="110" height="100" as="geometry" />
        </mxCell>
        <mxCell id="gnj5gE8BON5v_lgmN5P2-16" value="实现桌子接口" style="text;html=1;strokeColor=none;fillColor=none;align=center;verticalAlign=middle;whiteSpace=wrap;rounded=0;" parent="1" vertex="1">
          <mxGeometry x="882" y="640" width="96" height="20" as="geometry" />
        </mxCell>
        <mxCell id="gnj5gE8BON5v_lgmN5P2-17" value="实现桌子接口" style="text;html=1;strokeColor=none;fillColor=none;align=center;verticalAlign=middle;whiteSpace=wrap;rounded=0;" parent="1" vertex="1">
          <mxGeometry x="990" y="640" width="96" height="20" as="geometry" />
        </mxCell>
        <mxCell id="gnj5gE8BON5v_lgmN5P2-18" value="包含所有产品构造方法的接口" style="text;html=1;strokeColor=none;fillColor=none;align=center;verticalAlign=middle;whiteSpace=wrap;rounded=0;" parent="1" vertex="1">
          <mxGeometry x="10" y="60" width="180" height="20" as="geometry" />
        </mxCell>
        <mxCell id="gnj5gE8BON5v_lgmN5P2-19" value="现代家具工厂&lt;br&gt;（生产现代椅子）：（返回椅子接口）&lt;br&gt;业务逻辑返回实际产品的实例&lt;br&gt;&lt;br&gt;（生产现代桌子）：（返回桌子接口）&lt;br&gt;业务逻辑返回实际产品的实例" style="ellipse;whiteSpace=wrap;html=1;" parent="1" vertex="1">
          <mxGeometry x="45" y="320" width="220" height="160" as="geometry" />
        </mxCell>
        <mxCell id="gnj5gE8BON5v_lgmN5P2-20" value="古典家具工厂&lt;br&gt;（生产古典椅子）：&lt;br&gt;&lt;br&gt;&lt;br&gt;&lt;br&gt;&lt;br&gt;（生产古典桌子）：（返回桌子接口）" style="ellipse;whiteSpace=wrap;html=1;" parent="1" vertex="1">
          <mxGeometry x="280" y="330" width="350" height="260" as="geometry" />
        </mxCell>
        <mxCell id="gnj5gE8BON5v_lgmN5P2-21" value="客户根据&amp;nbsp; &amp;nbsp; &amp;nbsp; &amp;nbsp; &amp;nbsp; &amp;nbsp; &amp;nbsp; &amp;nbsp; &amp;nbsp; &amp;nbsp; &amp;nbsp; &amp;nbsp; &amp;nbsp; &amp;nbsp; &amp;nbsp; &amp;nbsp; &amp;nbsp;创建工厂实例，&lt;br&gt;然后通过工厂实例内的方法生成&amp;nbsp; &amp;nbsp; &amp;nbsp; &amp;nbsp; &amp;nbsp; &amp;nbsp; &amp;nbsp; &amp;nbsp; &amp;nbsp; &amp;nbsp; &amp;nbsp; &amp;nbsp; &amp;nbsp;的&amp;nbsp;&lt;br&gt;&lt;br&gt;&lt;br&gt;【实际产品实例】方法完成业务逻辑" style="shape=trapezoid;perimeter=trapezoidPerimeter;whiteSpace=wrap;html=1;" parent="1" vertex="1">
          <mxGeometry x="70" y="629" width="400" height="210" as="geometry" />
        </mxCell>
        <mxCell id="gnj5gE8BON5v_lgmN5P2-22" value="实现抽象工厂接口" style="text;html=1;strokeColor=none;fillColor=none;align=center;verticalAlign=middle;whiteSpace=wrap;rounded=0;" parent="1" vertex="1">
          <mxGeometry x="40" y="285" width="110" height="20" as="geometry" />
        </mxCell>
        <mxCell id="gnj5gE8BON5v_lgmN5P2-32" style="edgeStyle=orthogonalEdgeStyle;rounded=0;orthogonalLoop=1;jettySize=auto;html=1;exitX=1;exitY=0.5;exitDx=0;exitDy=0;entryX=0.5;entryY=0;entryDx=0;entryDy=0;" parent="1" source="gnj5gE8BON5v_lgmN5P2-27" target="gnj5gE8BON5v_lgmN5P2-7" edge="1">
          <mxGeometry relative="1" as="geometry" />
        </mxCell>
        <mxCell id="gnj5gE8BON5v_lgmN5P2-27" value="&lt;span&gt;（返回椅子接口）&lt;/span&gt;" style="ellipse;whiteSpace=wrap;html=1;" parent="1" vertex="1">
          <mxGeometry x="507" y="425" width="110" height="20" as="geometry" />
        </mxCell>
        <mxCell id="gnj5gE8BON5v_lgmN5P2-34" style="edgeStyle=orthogonalEdgeStyle;rounded=0;orthogonalLoop=1;jettySize=auto;html=1;exitX=1;exitY=0.5;exitDx=0;exitDy=0;entryX=0.5;entryY=0;entryDx=0;entryDy=0;" parent="1" source="gnj5gE8BON5v_lgmN5P2-33" target="gnj5gE8BON5v_lgmN5P2-3" edge="1">
          <mxGeometry relative="1" as="geometry" />
        </mxCell>
        <mxCell id="gnj5gE8BON5v_lgmN5P2-33" value="实例返回具体产品类（沙发）" style="ellipse;whiteSpace=wrap;html=1;" parent="1" vertex="1">
          <mxGeometry x="410" y="450" width="180" height="40" as="geometry" />
        </mxCell>
        <mxCell id="gnj5gE8BON5v_lgmN5P2-35" value="实际工厂类" style="rounded=1;whiteSpace=wrap;html=1;" parent="1" vertex="1">
          <mxGeometry x="210" y="690" width="70" height="20" as="geometry" />
        </mxCell>
        <mxCell id="gnj5gE8BON5v_lgmN5P2-37" style="edgeStyle=orthogonalEdgeStyle;rounded=0;orthogonalLoop=1;jettySize=auto;html=1;exitX=0.5;exitY=1;exitDx=0;exitDy=0;" parent="1" source="gnj5gE8BON5v_lgmN5P2-19" target="gnj5gE8BON5v_lgmN5P2-35" edge="1">
          <mxGeometry relative="1" as="geometry" />
        </mxCell>
        <mxCell id="gnj5gE8BON5v_lgmN5P2-38" value="实际产品类" style="rounded=1;whiteSpace=wrap;html=1;" parent="1" vertex="1">
          <mxGeometry x="295" y="715" width="70" height="20" as="geometry" />
        </mxCell>
        <mxCell id="gnj5gE8BON5v_lgmN5P2-39" style="edgeStyle=orthogonalEdgeStyle;rounded=0;orthogonalLoop=1;jettySize=auto;html=1;entryX=0.5;entryY=0;entryDx=0;entryDy=0;exitX=0;exitY=0;exitDx=0;exitDy=0;" parent="1" source="gnj5gE8BON5v_lgmN5P2-3" target="gnj5gE8BON5v_lgmN5P2-38" edge="1">
          <mxGeometry relative="1" as="geometry">
            <mxPoint x="600" y="725" as="sourcePoint" />
            <Array as="points">
              <mxPoint x="490" y="686" />
              <mxPoint x="490" y="650" />
              <mxPoint x="330" y="650" />
            </Array>
          </mxGeometry>
        </mxCell>
        <mxCell id="gnj5gE8BON5v_lgmN5P2-40" value="实际产品实例" style="rounded=1;whiteSpace=wrap;html=1;" parent="1" vertex="1">
          <mxGeometry x="370" y="751" width="80" height="25" as="geometry" />
        </mxCell>
        <mxCell id="gnj5gE8BON5v_lgmN5P2-42" style="edgeStyle=orthogonalEdgeStyle;rounded=0;orthogonalLoop=1;jettySize=auto;html=1;exitX=0;exitY=0.5;exitDx=0;exitDy=0;entryX=1;entryY=0.5;entryDx=0;entryDy=0;" parent="1" source="gnj5gE8BON5v_lgmN5P2-41" target="gnj5gE8BON5v_lgmN5P2-40" edge="1">
          <mxGeometry relative="1" as="geometry" />
        </mxCell>
        <mxCell id="gnj5gE8BON5v_lgmN5P2-41" value="实际产品实例（沙发）" style="ellipse;whiteSpace=wrap;html=1;" parent="1" vertex="1">
          <mxGeometry x="580" y="839" width="140" height="80" as="geometry" />
        </mxCell>
      </root>
    </mxGraphModel>
  </diagram>
</mxfile>
